<svg xmlns="http://www.w3.org/2000/svg" viewBox="0 0 512 512"><circle cx="265.911" cy="132.089" r="25"/><path d="M437.02 74.98C388.667 26.629 324.38 0 256 0S123.333 26.629 74.98 74.98C26.629 123.333 0 187.62 0 256s26.629 132.667 74.98 181.02C123.333 485.371 187.62 512 256 512s132.667-26.629 181.02-74.98C485.371 388.667 512 324.38 512 256s-26.629-132.667-74.98-181.02zM256 472c-119.103 0-216-96.897-216-216S136.897 40 256 40s216 96.897 216 216-96.897 216-216 216z"/><path d="M278.528 366.083c-4.024 1.965-7.223.347-8.771-.792-1.546-1.138-4.041-3.705-3.359-8.17l17.163-114.269c2.728-17.888-4.633-35.66-19.212-46.381-14.582-10.724-33.746-12.454-50.01-4.517l-24.695 12.044 17.527 35.955 24.708-12.051c4.023-1.962 7.223-.345 8.771.793 1.547 1.138 4.041 3.706 3.36 8.17l-17.163 114.269c-2.729 17.888 4.633 35.659 19.211 46.381 8.508 6.257 18.574 9.451 28.716 9.451 7.24 0 14.519-1.629 21.294-4.935l24.696-12.045-17.53-35.955-24.706 12.052z"/></svg>