<svg xmlns="http://www.w3.org/2000/svg" viewBox="0 0 8.64 8.64"><path d="M6.919 3.296a2.64 2.64 0 1 0-5.208.003A2.638 2.638 0 1 0 4.32 7.805a2.64 2.64 0 0 0 4.321-2.037 2.64 2.64 0 0 0-1.722-2.472zM2.445 1.792a2.16 2.16 0 0 1 4.01 1.377 2.629 2.629 0 0 0-2.135.562 2.631 2.631 0 0 0-2.141-.561c-.065-.46.016-.944.266-1.378zm3.888 1.844c-.04.108-.087.214-.147.317a2.16 2.16 0 0 1-1.062.922 2.672 2.672 0 0 0-.46-.802A2.15 2.15 0 0 1 6 3.607c.114 0 .225.012.333.029zM4.658 5.005c-.222.036-.45.036-.676.001.082-.217.195-.418.338-.594.142.176.256.377.338.593zm-.681-.932a2.631 2.631 0 0 0-.461.804 2.155 2.155 0 0 1-1.22-1.239 2.148 2.148 0 0 1 1.681.435zM2.64 7.927a2.16 2.16 0 0 1-.808-4.162 2.639 2.639 0 0 0 1.163 1.394c.13.075.264.135.4.185a2.626 2.626 0 0 0 .582 2.118c-.368.29-.832.465-1.337.465zm1.2-2.159c0-.102.012-.199.026-.297.304.053.61.053.908 0 .014.098.026.196.026.297 0 .514-.181.985-.48 1.355-.3-.37-.48-.841-.48-1.355zM6 7.927c-.505 0-.969-.175-1.336-.465a2.636 2.636 0 0 0 .581-2.118 2.637 2.637 0 0 0 1.554-1.582A2.16 2.16 0 0 1 6 7.927z"/></svg>