<svg xmlns="http://www.w3.org/2000/svg" viewBox="0 0 281.85 283.93" height="100%">
										<path d="M156.84 24.95c5.71 5.16 8.7 12.5 8.7 20.38v40.22c4.08-2.18 8.7-3.26 13.04-3.26 10.6 0 20.66 6.25 25.55 15.49 3.26-2.18 7.88-4.35 13.86-4.35 10.05 0 19.57 6.25 23.91 15.22 3.54-2.18 7.61-3.26 12.23-3.26 7.07-.28 14.13 2.44 19.3 7.6 5.43 5.17 8.42 12.23 8.42 19.57V200.77c-5.44 73.65-52.45 83.16-92.94 83.16-35.6 0-67.4-17.39-83.16-45.38-1.9-2.99-6.25-10.33-11.96-19.57l-5.16-7.88c-10.06-15.76-17.94-27.99-23.64-37.5l-.55-1.09c-2.71-5.44-6.25-10.33-10.05-13.59-5.98-4.62-8.97-9.78-11.14-14.13-2.99-5.43-3.26-16.3 1.36-24.19 4.07-6.79 10.05-10.05 18.2-10.05 10.06 0 20.93 3.53 30.17 9.78 5.43 2.99 10.6 7.61 15.49 12.77V46.41c0-15.76 12.5-29.07 27.99-29.35h.82c7.61 0 14.4 2.72 19.56 7.89zm-52.45 125.28-1.36-1.91c-4.89-6.52-11.14-12.5-17.12-16.03l-.27-.27c-6.79-4.62-15.49-7.34-22.55-7.34-3.26 0-4.9 1.09-6.53 3.53-2.17 3.54-1.9 9.24-1.08 10.87 1.9 3.54 3.53 6.8 7.61 9.79l.27.27c5.16 4.62 10.32 11.14 13.59 18.21l.27.27c5.43 9.24 13.31 21.2 23.1 36.69l5.16 7.88c5.71 9.51 10.33 16.85 12.23 20.11 13.32 23.64 40.76 38.59 71.2 38.59 38.59 0 74.73-8.43 79.35-70.39v-67.4c0-3.53-1.36-7.06-4.07-9.78-2.45-2.44-5.98-3.8-9.51-3.8h-.28c-2.71 0-4.62.54-6.52 2.17l-1.36 1.09c-2.72 2.17-6.25 2.99-9.24 1.9-2.99-1.09-5.43-3.53-6.52-7.07l-.27-1.08c-1.63-5.17-6.8-9.24-12.5-9.24-3.81 0-6.8 1.9-8.16 3.26l-1.36.81c-2.17 1.91-5.16 2.72-8.15 1.91-3.26-.82-5.98-3.26-7.06-6.25l-.28-.82c-1.9-5.71-8.42-10.33-14.4-10.33-3.26 0-6.79 1.36-9.78 3.81l-1.36 1.09c-3.26 2.17-7.07 2.44-10.33.81s-5.16-4.89-5.16-8.7V45.6c0-4.35-1.63-8.15-4.62-10.87-2.99-2.72-6.52-4.08-10.6-4.08-7.88.27-14.67 7.34-14.67 15.76v97.56c0 4.08-2.45 7.89-6.52 9.24-.82.28-1.91.55-2.99.55-2.99 0-5.98-1.36-8.16-3.53zM33.31 1.9c2.43-2.43 6.11-2.58 8.54-.15 2.35 2.35 2.5 6.42.15 8.76l-21.11 20.8h57.04c3.39 0 6.17 2.7 6.17 6.09 0 3.39-2.78 6.17-6.17 6.17H20.89l21.65 21.26c2.35 2.43 2.35 6.35 0 8.69-2.43 2.43-6.26 2.43-8.7 0L1.76 41.75c-2.35-2.35-2.35-6.26 0-8.61L33.31 1.9zM238.67 1.9c-2.43-2.43-6.11-2.58-8.54-.15-2.35 2.35-2.5 6.42-.15 8.76l21.1 20.8h-57.03c-3.39 0-6.17 2.7-6.17 6.09 0 3.39 2.78 6.17 6.17 6.17h57.03l-21.64 21.26c-2.35 2.43-2.35 6.35 0 8.69 2.43 2.43 6.26 2.43 8.69 0l32.09-31.77c2.35-2.35 2.35-6.26 0-8.61L238.67 1.9z"></path>
									</svg>