<svg xmlns="http://www.w3.org/2000/svg" viewBox="0 0 1030 925"><path d="M307 68c-70 0-129 28-170 72-44 48-69 115-69 189 0 72 46 153 115 233 89 102 214 201 331 281 117-79 240-179 328-280 70-81 118-163 119-234v-6c0-71-23-135-63-181-39-45-96-73-165-75h-4c-29 0-59 8-90 24-33 17-66 43-100 77l-24 24-24-24c-35-35-67-61-98-77-29-16-57-23-86-23zM87 94C141 36 217 0 307 0c41 0 79 11 118 32 29 16 59 38 89 66 31-28 62-50 93-66 41-21 81-32 121-32h5c90 1 164 39 215 98 51 58 80 138 80 226v7c-1 89-55 185-135 277-97 112-235 221-361 305l-19 12-19-12c-127-85-266-193-364-306C51 516-2 420-2 330c0-92 32-175 87-235z"/></svg>