<svg viewBox="-28 0 512 512" xmlns="http://www.w3.org/2000/svg"><path d="M195.008 329.984c74.445 0 135.012-60.566 135.012-135.011 0-74.446-60.567-135.012-135.012-135.012S59.996 120.527 59.996 194.973c0 74.445 60.567 135.011 135.012 135.011zm0-240.02c57.902 0 105.008 47.106 105.008 105.009S252.91 299.98 195.008 299.98C137.105 299.98 90 252.875 90 194.973S137.105 89.965 195.008 89.965zm0 0"/><path d="M195.008 269.945c19.207 0 38.414-7.312 53.039-21.933l-21.215-21.215c-17.547 17.543-46.098 17.547-63.644 0-17.547-17.55-17.547-46.102 0-63.649 17.546-17.546 46.097-17.546 63.644 0l21.215-21.214c-29.246-29.246-76.832-29.243-106.074 0-47.293 47.293-13.34 128.011 53.035 128.011zm0 0"/><path d="M59.996 335.7V512h210.02v-62.004h90.007v-68.793l30-30.004v-27.015l65.735-33.422-65.785-100.348C387.176 68.766 275.098-21.086 153.21 4.32 79.176 19.75 19.277 79.937 4.164 154.082c-13.77 67.531 7.07 134.902 55.832 181.617zM33.562 160.077C46.316 97.504 96.864 46.711 159.332 33.691c105.762-22.043 200.691 57.477 200.691 161.282v4.48l52.278 79.746-52.278 26.582v32.992l-30.003 30v51.22h-90.008v62.003H90l-.004-159.555c-1.133-1.707-77.73-57.914-56.433-162.363zm0 0"/></svg>