 <svg xmlns="http://www.w3.org/2000/svg" viewBox="0 0 1000 1000"><path d="M978.7 420.9 581.6 95c-9.2-7.5-21.8-8.9-32.5-3.9-10.7 5.1-17.5 15.8-17.5 27.7l-.9 171.9c-178 5.7-315.8 62.9-405.1 167.4-145.5 170.1-113 417.4-111.5 427.7 2.3 15 13.3 26 28.4 26h1.1c15.5-.5 25.3-12.5 26.6-28 1-11.3 31.5-286.2 460.6-285.9l.9 175.8c0 11.8 6.8 22.6 17.6 27.7 10.6 5.1 23.4 3.5 32.5-4l397.1-329c7.1-5.8 11.2-14.5 11.2-23.7-.1-9.3-4.3-18-11.4-23.8zM592.9 708.8v-142c0-8.1-3.2-15.9-9-21.7-5.8-5.7-13.5-8.9-21.6-8.9h-.1c-306.4.2-423.5 103.7-490.4 195 9.8-73.2 38.3-161.4 100.5-233.5 82.6-95.8 215.7-146.3 390-146.3 16.9 0 30.6-13.7 30.6-30.6V183.2L911 444.8l-318.1 264z"/></svg>