<svg xmlns="http://www.w3.org/2000/svg" viewBox="0 0 1241 1139"><path d="M305 776c-16,0 -29,-8 -36,-22 70,-71 140,-141 210,-211 20,-20 19,-26 44,-26 10,0 74,68 89,83 8,8 33,41 55,13l200 -239c11,-13 30,-46 56,-25l257 300c4,4 8,5 8,12l0 70c0,24 -22,46 -46,46l-836 0zm339 -221c-45,-30 -65,-92 -131,-92 -37,0 -55,25 -75,44l-180 179 0 -516c0,-47 -12,-116 56,-116l817 0c32,0 56,20 56,51l0 470c-57,-65 -157,-183 -210,-245 -20,-26 -40,-41 -76,-41 -27,0 -47,17 -62,35 -57,68 -113,137 -171,205 -6,7 -17,22 -24,27l0 0zm-439 -451l0 621c0,50 45,104 97,104l839 0c53,0 99,-46 99,-99l0 -633c0,-62 -60,-97 -116,-97l-802 0c-61,0 -116,38 -116,104z"/><path d="M0 817c0,85 60,102 120,117 237,63 474,127 711,191 51,13 96,29 141,-12 32,-29 39,-87 52,-132l20 -72c0,-16 -12,-29 -24,-29 -34,0 -32,38 -43,75 -23,74 -12,148 -108,124 -234,-58 -472,-125 -705,-189 -40,-11 -81,-14 -100,-38 -20,-26 -6,-53 1,-83l85 -319c7,-22 12,-51 -24,-51 -20,0 -24,22 -28,40 -20,82 -98,321 -98,377z"/><path d="M605 255c0,156 -236,159 -236,0 0,-156 236,-159 236,0zm-184 0c0,88 131,86 131,0 0,-88 -131,-86 -131,0z"/></svg>